<?xml version="1.0" standalone="no"?>
<!DOCTYPE svg PUBLIC "-//W3C//DTD SVG 20010904//EN"
 "http://www.w3.org/TR/2001/REC-SVG-20010904/DTD/svg10.dtd">
<svg version="1.0" xmlns="http://www.w3.org/2000/svg"
 width="56.000000pt" height="90.000000pt" viewBox="0 0 56.000000 90.000000"
 preserveAspectRatio="xMidYMid meet">

<g transform="translate(0.000000,90.000000) scale(0.100000,-0.100000)"
fill="#000000" stroke="none">
<path d="M207 832 c-3 -4 4 -24 16 -43 40 -64 47 -81 47 -115 0 -39 -29 -96
-72 -141 -35 -36 -38 -27 42 -123 25 -30 53 -66 61 -80 l16 -25 -42 3 c-53 5
-79 -8 -99 -49 -21 -41 -20 -88 1 -119 26 -39 102 -110 119 -110 20 0 17 11
-16 50 -36 41 -39 86 -10 118 17 18 32 22 80 22 33 0 60 2 60 5 0 7 -39 62
-62 88 -23 27 -48 81 -48 105 0 11 22 53 48 93 l48 74 -89 125 c-50 69 -91
126 -93 128 -1 2 -4 -1 -7 -6z"/>
</g>
</svg>
