<?xml version="1.0" standalone="no"?>
<!DOCTYPE svg PUBLIC "-//W3C//DTD SVG 20010904//EN"
 "http://www.w3.org/TR/2001/REC-SVG-20010904/DTD/svg10.dtd">
<svg version="1.0" xmlns="http://www.w3.org/2000/svg"
 width="38.000000pt" height="57.000000pt" viewBox="0 0 38.000000 57.000000"
 preserveAspectRatio="xMidYMid meet">

<g transform="translate(0.000000,57.000000) scale(0.100000,-0.100000)"
fill="#000000" stroke="none">
<path d="M79 478 c-38 -13 -45 -63 -13 -95 26 -26 96 -32 152 -12 17 6 35 9
40 7 5 -1 -11 -46 -36 -98 -46 -97 -99 -221 -109 -252 -4 -13 0 -18 15 -18 13
0 23 9 27 23 4 12 27 74 52 137 56 142 102 270 96 270 -2 0 -19 -11 -38 -25
-18 -14 -49 -29 -69 -32 l-37 -6 6 39 c3 22 2 44 -2 51 -12 16 -53 22 -84 11z"/>
</g>
</svg>
